<?xml version="1.0" encoding="utf-8"?>
<svg fill="none" height="80" preserveAspectRatio="xMidYMid" viewBox="0 0 677 309" width="80" xmlns="http://www.w3.org/2000/svg">
 <path d="M523.071 301.308V306.601H512.181L454.378 306.67V301.915C456.97 300.026 459.084 297.6 460.512 294.704C462.4 290.859 462.851 286.671 462.068 282.572C461.716 280.713 459.319 274.666 458.81 273.473L413.823 147.974L410.164 137.759L377.251 45.9367L377.172 45.9856C370.871 28.893 360.011 17.6023 347.654 17.6023C341.099 17.6023 334.955 20.7821 329.701 26.3296H329.691C327.264 28.8832 325.043 31.9261 323.047 35.3896L323.028 35.4092C322.92 35.5853 322.822 35.7712 322.725 35.9571L321.775 37.6986C321.697 37.8454 321.629 37.9922 321.55 38.1291L245.842 177.394L219.181 226.431L219.132 226.539L214.142 235.726L214.025 235.941C209.416 243.847 204.28 251.253 198.674 258.063C194.564 263.092 190.191 267.788 185.602 272.152C156.573 299.733 118.739 313.587 78.9961 307.149C60.0641 304.077 42.4138 296.7 26.6225 285.908L26.6029 285.889C25.1353 284.891 23.6775 283.873 22.2393 282.787C22.2295 282.787 22.2197 282.777 22.2099 282.768C11.1247 274.148 3.87476 262.544 0.988485 250.441C0.890646 250.06 0.792807 249.659 0.714536 249.267C-0.70414 242.448 1.4092 236.108 6.26204 233.994C11.79 231.597 18.9323 235.57 22.7676 242.966C23.0709 243.671 23.3742 244.346 23.7069 245.021C23.7069 245.021 23.7101 245.027 23.7167 245.041C31.2894 261.145 42.453 274.901 56.9528 284.754C62.0992 288.237 67.4412 291.084 72.9496 293.324C115.187 310.505 166.298 291.563 198.263 246.224C201.247 241.968 204.084 237.497 206.706 232.801C206.736 232.742 206.775 232.693 206.814 232.625L206.863 232.664L231.646 186.669L235.686 179.155L316.404 29.2648C323.419 16.2423 334.25 7.78902 346.304 3.69932C347.4 3.32753 348.496 2.9851 349.611 2.70136C375.01 -4.13763 404.558 7.74012 414.958 36.593L434.868 91.8822L438.665 102.429L500.46 274.05V274.079C500.842 275.224 501.243 276.339 501.673 277.445L501.732 277.572C504.648 284.851 509.236 291.289 515.459 296.328C517.856 298.265 520.41 299.929 523.071 301.308Z" fill="none" stroke="#003459" stroke-width="2">
  <animate attributeName="stroke-dashoffset" begin="0s" dur="2s" repeatCount="indefinite" values="1000;0"/>
  <animate attributeName="stroke-dasharray" begin="0s" dur="2s" repeatCount="indefinite" values="1000;1000"/>
 </path>
 <path d="M98.2998 308.832C91.8913 308.832 85.4437 308.313 78.9765 307.267C60.4261 304.253 42.7954 297.101 26.554 286.006C26.554 286.006 26.5247 285.977 26.5149 285.977C24.7635 284.783 23.4133 283.834 22.1806 282.895C22.1512 282.885 22.1316 282.856 22.1219 282.846C11.4182 274.52 3.86497 263.014 0.871079 250.461C0.792807 250.138 0.685185 249.707 0.597129 249.287C-0.860683 242.291 1.44834 235.951 6.21313 233.877C11.79 231.46 18.9519 235.335 22.8752 242.908C22.8752 242.917 22.885 242.927 22.885 242.947C23.1492 243.544 23.4623 244.248 23.8145 244.962C23.8145 244.962 23.8145 244.972 23.8243 244.982C31.5536 261.429 43.04 275.146 57.0213 284.646C62.0894 288.07 67.4608 290.957 72.9985 293.207C83.213 297.355 94.0732 299.469 105.305 299.469C105.491 299.469 105.667 299.469 105.853 299.469C117.026 299.4 128.317 297.258 139.412 293.109C150.527 288.951 161.181 282.865 171.053 275.038C181.19 267.005 190.299 257.3 198.145 246.175C198.145 246.166 198.145 246.156 198.155 246.146C201.237 241.763 204.074 237.252 206.589 232.742C206.608 232.713 206.628 232.674 206.648 232.644C206.667 232.625 206.677 232.595 206.696 232.566C206.716 232.537 206.745 232.517 206.775 232.507C206.775 232.507 206.784 232.507 206.794 232.507L235.559 179.106L316.277 29.2159C322.94 16.8392 333.301 7.98469 346.245 3.59169C347.507 3.1612 348.564 2.84809 349.562 2.59371C362.379 -0.860032 376.018 0.411878 387.944 6.16485C400.556 12.2505 410.183 23.0422 415.056 36.5637L500.568 274.05C500.93 275.165 501.321 276.261 501.771 277.406L501.83 277.523C504.834 285.008 509.432 291.309 515.527 296.23C517.885 298.138 520.449 299.811 523.12 301.2C523.159 301.22 523.188 301.259 523.188 301.308V306.601C523.188 306.67 523.13 306.719 523.071 306.719H512.181L454.378 306.787C454.378 306.787 454.319 306.777 454.29 306.748C454.26 306.719 454.25 306.689 454.25 306.66V301.905C454.25 301.905 454.27 301.827 454.299 301.807C456.951 299.87 459.005 297.463 460.395 294.645C462.205 290.957 462.743 286.789 461.941 282.591C461.598 280.791 459.26 274.842 458.692 273.522L377.182 46.1128C377.182 46.1128 377.153 46.1128 377.133 46.1128C377.094 46.103 377.074 46.0737 377.055 46.0345C370.519 28.3158 359.532 17.7295 347.654 17.7295C341.353 17.7295 335.17 20.7332 329.789 26.4177C327.391 28.9322 325.161 31.9652 323.155 35.4581C323.155 35.4581 323.145 35.4777 323.135 35.4874C323.028 35.6538 322.93 35.8397 322.832 36.0255L321.883 37.7671C321.854 37.8258 321.824 37.8747 321.795 37.9334C321.746 38.0215 321.707 38.1095 321.658 38.1976L219.288 226.5L219.239 226.598L214.132 236.01C209.524 243.915 204.358 251.361 198.771 258.151C194.731 263.092 190.338 267.837 185.69 272.25C170.946 286.26 154.342 296.445 136.359 302.531C123.924 306.738 111.185 308.852 98.2998 308.852V308.832ZM22.2784 282.67C22.2784 282.67 22.3078 282.679 22.3175 282.689C23.5503 283.619 24.9005 284.577 26.6812 285.791C26.6812 285.791 26.7105 285.82 26.7203 285.83C42.9128 296.896 60.5142 304.038 79.0254 307.032C98.4368 310.182 117.701 308.578 136.291 302.296C154.245 296.22 170.809 286.055 185.534 272.064C190.171 267.651 194.564 262.916 198.595 257.985C204.172 251.204 209.338 243.769 213.937 235.883L245.754 177.335L321.462 38.0704C321.511 37.9823 321.55 37.9041 321.599 37.816C321.629 37.7573 321.658 37.6986 321.687 37.6399L322.636 35.8983C322.734 35.7125 322.832 35.5266 322.94 35.3407C322.94 35.3407 322.959 35.3211 322.969 35.3113C324.985 31.8087 327.225 28.7659 329.622 26.2514C335.062 20.5082 341.304 17.4751 347.674 17.4751C359.63 17.4751 370.686 28.0614 377.26 45.8095C377.27 45.8095 377.29 45.8095 377.309 45.8095C377.348 45.8193 377.368 45.8487 377.388 45.8878L458.947 273.424C459.416 274.52 461.843 280.625 462.215 282.542C463.027 286.789 462.489 291.015 460.649 294.753C459.25 297.59 457.186 300.026 454.524 301.973V306.543L522.973 306.474V301.377C520.312 299.987 517.758 298.324 515.41 296.416C509.295 291.465 504.657 285.135 501.644 277.611L501.585 277.494C501.135 276.33 500.734 275.234 500.372 274.118V274.089L414.86 36.6321C410.007 23.1694 400.429 12.4266 387.876 6.37034C375.998 0.646715 362.428 -0.625206 349.66 2.81875C348.662 3.07313 347.615 3.38621 346.363 3.81671C333.477 8.19014 323.165 17.0055 316.531 29.3236L231.773 186.728L206.99 232.722C206.99 232.722 206.941 232.781 206.912 232.781C206.902 232.781 206.892 232.781 206.882 232.781C206.863 232.801 206.853 232.83 206.843 232.85C204.319 237.37 201.482 241.88 198.409 246.263C198.409 246.273 198.409 246.283 198.4 246.293C190.543 257.437 181.405 267.172 171.249 275.224C161.348 283.071 150.683 289.166 139.539 293.334C128.415 297.502 117.095 299.645 105.892 299.713C105.706 299.713 105.53 299.713 105.344 299.713C94.083 299.713 83.1836 297.6 72.9398 293.442C67.3923 291.182 62.0013 288.295 56.9234 284.861C42.903 275.332 31.3971 261.585 23.6482 245.099C23.2862 244.356 22.9731 243.641 22.7089 243.035V243.015C18.8442 235.579 11.8193 231.754 6.36967 234.122C1.7125 236.147 -0.537809 242.369 0.890651 249.257C0.978707 249.678 1.07655 250.099 1.1646 250.422C4.14871 262.926 11.6628 274.383 22.3469 282.679C22.3469 282.679 22.3469 282.679 22.3371 282.679L22.2784 282.67Z" fill="none" stroke="#003459" stroke-width="2">
  <animate attributeName="stroke-dashoffset" begin="0s" dur="2s" repeatCount="indefinite" values="1000;0"/>
  <animate attributeName="stroke-dasharray" begin="0s" dur="2s" repeatCount="indefinite" values="1000;1000"/>
 </path>
 <path d="M675.984 302.384V306.914H607.545V302.825C610.128 300.917 612.222 298.471 613.65 295.545C613.67 295.516 613.68 295.487 613.699 295.448C615.646 291.407 615.734 286.72 614.247 282.484L611.214 273.903L529.469 45.8684L529.4 45.8977C523.1 28.8051 512.239 17.5242 499.882 17.5242C493.307 17.5242 487.163 20.7138 481.899 26.2711H481.89C479.492 28.8051 477.291 31.8284 475.305 35.2528L475.246 35.331L475.109 35.5854C475.109 35.5854 475.08 35.6344 475.06 35.6637C475.031 35.742 474.992 35.8007 474.943 35.8691L474.16 37.327C474.16 37.327 474.131 37.3661 474.121 37.3955L438.664 102.43L413.822 147.974L346.675 271.134C346.675 271.134 342.624 277.709 341.675 281.036C340.345 285.722 340.589 290.595 342.732 294.998C344.121 297.874 346.186 300.271 348.72 302.14C348.945 302.306 349.17 302.473 349.405 302.619V306.875H348.72L319.055 306.914H290.339V302.795C299.604 299.704 308.87 295.066 318.077 289.577C331.627 281.486 340.071 266.223 340.071 266.223C343.075 261.155 346.548 256.165 349.17 250.989L349.199 250.95L410.163 137.759L434.868 91.8824L468.632 29.1867C475.638 16.1643 486.478 7.71092 498.532 3.62122C499.618 3.23965 500.724 2.90697 501.839 2.62324C527.228 -4.21576 556.786 7.66199 567.167 36.5149L651.27 270.019L655.702 282.347C658.588 287.934 662.541 292.904 667.56 296.974C670.192 299.117 673.019 300.917 675.984 302.384Z" fill="none" stroke="#003459" stroke-width="2">
  <animate attributeName="stroke-dashoffset" begin="0s" dur="2s" repeatCount="indefinite" values="1000;0"/>
  <animate attributeName="stroke-dasharray" begin="0s" dur="2s" repeatCount="indefinite" values="1000;1000"/>
 </path>
 <path d="M675.984 307.404H607.545C607.271 307.404 607.056 307.188 607.056 306.914V302.825C607.056 302.668 607.134 302.521 607.252 302.433C609.834 300.526 611.84 298.138 613.21 295.33L613.699 295.448L613.259 295.232C615.079 291.456 615.274 286.867 613.787 282.64L610.754 274.06C610.754 274.06 610.744 274.031 610.735 274.011L529.078 46.2402C529.019 46.1913 528.96 46.1326 528.931 46.0641C522.454 28.5019 511.594 18.0135 499.872 18.0135C493.669 18.0135 487.574 20.9878 482.242 26.6038C479.903 29.0694 477.712 32.0535 475.716 35.4975L475.53 35.8203C475.53 35.8203 475.51 35.8594 475.491 35.8888C475.442 35.9964 475.393 36.0845 475.334 36.153L474.581 37.5619L347.096 271.369C347.047 271.457 343.084 277.905 342.145 281.134C342.145 281.153 342.145 281.163 342.135 281.183C340.785 285.928 341.137 290.634 343.163 294.782C344.483 297.522 346.45 299.86 349.004 301.749C349.219 301.905 349.434 302.071 349.659 302.208C349.806 302.296 349.894 302.453 349.894 302.619V306.875C349.894 307.149 349.679 307.365 349.405 307.365L290.339 307.404C290.065 307.404 289.85 307.188 289.85 306.914V302.795C289.85 302.58 289.987 302.394 290.182 302.336C298.655 299.508 307.696 295.203 317.822 289.157C331.099 281.232 339.552 266.135 339.64 265.988C340.697 264.198 341.822 262.407 342.918 260.675C344.943 257.457 347.037 254.12 348.739 250.764C348.749 250.735 348.798 250.676 348.818 250.647L468.212 28.9422C474.914 16.4872 485.343 7.57398 498.385 3.14184C499.462 2.76027 500.587 2.42761 501.731 2.13409C525.418 -4.24505 556.571 5.56829 567.636 36.3389L651.739 269.843L656.171 282.171C659.067 287.777 663.02 292.64 667.873 296.583C670.427 298.657 673.225 300.457 676.209 301.934C676.375 302.013 676.483 302.189 676.483 302.375V306.905C676.483 307.179 676.268 307.394 675.994 307.394L675.984 307.404ZM608.034 306.425H675.495V302.688C672.55 301.21 669.781 299.41 667.247 297.356C662.286 293.334 658.246 288.354 655.261 282.572L650.8 270.185L566.697 36.6813C555.827 6.46839 525.233 -3.16881 501.956 3.09293C500.841 3.37667 499.745 3.70933 498.689 4.08112C485.881 8.42521 475.638 17.1916 469.053 29.4216L349.62 251.185C349.62 251.185 349.561 251.263 349.552 251.283C347.879 254.6 345.775 257.956 343.74 261.194C342.654 262.926 341.529 264.706 340.492 266.468C340.413 266.605 331.833 281.926 318.331 289.988C308.273 295.986 299.272 300.291 290.828 303.138V306.415H319.055L348.916 306.376V302.874C348.749 302.766 348.593 302.639 348.426 302.521C345.746 300.545 343.681 298.08 342.292 295.203C340.169 290.839 339.787 285.908 341.196 280.938C341.196 280.918 341.196 280.909 341.206 280.889C342.165 277.533 346.088 271.135 346.264 270.861L413.402 147.72L473.7 37.1412C473.7 37.1412 473.739 37.0629 473.749 37.0531L474.522 35.6149C474.591 35.5072 474.6 35.4876 474.61 35.4681C474.62 35.4387 474.64 35.3996 474.659 35.3703L474.923 34.93C476.929 31.4664 479.16 28.4236 481.547 25.9189C487.075 20.0877 493.415 17.0057 499.892 17.0057C511.995 17.0057 523.158 27.6507 529.792 45.4869C529.86 45.5358 529.909 45.5945 529.939 45.6728L611.684 273.698C611.684 273.698 611.693 273.737 611.703 273.757L614.717 282.298C616.282 286.769 616.077 291.632 614.149 295.634C614.12 295.712 614.09 295.751 614.071 295.79C612.701 298.608 610.666 301.064 608.044 303.04V306.396L608.034 306.425Z" fill="none" stroke="#003459" stroke-width="2">
  <animate attributeName="stroke-dashoffset" begin="0s" dur="2s" repeatCount="indefinite" values="1000;0"/>
  <animate attributeName="stroke-dasharray" begin="0s" dur="2s" repeatCount="indefinite" values="1000;1000"/>
 </path>
</svg>
